<svg xmlns="http://www.w3.org/2000/svg" width="512" height="468.859" viewBox="0 0 512 468.859">
  <g id="Layer_x0020_1" transform="translate(-93.999 -121.561)">
    <path id="Path_26" data-name="Path 26" d="M546.862,191.013a6,6,0,0,0,0,12h35.963a11.122,11.122,0,0,1,7.886,3.265l4.242-4.219L590.71,206.3h0A11.14,11.14,0,0,1,594,214.189V500.451a11.14,11.14,0,0,1-3.288,7.887c-.086.086-.167.174-.247.263a11.119,11.119,0,0,1-7.639,3.025H117.174A11.225,11.225,0,0,1,106,500.451V214.189a11.225,11.225,0,0,1,11.174-11.176h44.19a6,6,0,1,0,0-12h-44.19A23.226,23.226,0,0,0,94,214.189V500.451a23.226,23.226,0,0,0,23.174,23.176H582.825a23.1,23.1,0,0,0,15.984-6.448q.2-.168.387-.356a23.111,23.111,0,0,0,6.8-16.372V214.189a23.113,23.113,0,0,0-6.8-16.37h0l-.012.012a23.12,23.12,0,0,0-16.359-6.815H546.862Z" style="fill: rgb(255, 255, 255);"></path>
    <path id="Path_27" data-name="Path 27" d="M389.716,517.626a6,6,0,0,0-12,0V584.42a6,6,0,0,0,12,0ZM310.284,584.42a6,6,0,0,0,12,0V517.626a6,6,0,0,0-12,0Z" style="fill: rgb(255, 255, 255);"></path>
    <path id="Path_28" data-name="Path 28" d="M264.759,578.42a6,6,0,0,0,0,12H435.243a6,6,0,1,0,0-12H264.759Z" style="fill: rgb(255, 255, 255);"></path>
    <path id="Path_29" data-name="Path 29" d="M100,455.645c-3.313,0-6,13.736-6,30.673s14.953,30.672,18.266,30.672H586.25c3.313,0,19.749-13.736,19.749-30.672s-2.687-30.673-6-30.673H100Zm250,13.7a16.974,16.974,0,1,1-16.974,16.974A16.994,16.994,0,0,1,350,469.343Z" style="fill: rgb(255, 255, 255);"></path>
    <path id="Path_30" data-name="Path 30" d="M219.546,167l.627,181.925,9.731-.215c42.619-.986,82.2-1.9,119.841,21.154V156.475c-18.033-12.045-38.062-20.465-58.991-26.007-23.174-6.136-47.45-8.77-71.362-8.907l.152,44.339c.018.188.027.378.027.57s-.008.359-.024.529ZM325.591,328.4c-17.33-27.126-92.411-34.259-92.626-34.28a5.982,5.982,0,0,1,1.172-11.906c.231.022,81.02,7.658,101.531,39.763a5.975,5.975,0,0,1-10.077,6.423Zm0-28.289c-17.33-27.125-92.411-34.258-92.626-34.279a5.982,5.982,0,0,1,1.172-11.906c.231.022,81.019,7.657,101.531,39.762a5.975,5.975,0,1,1-10.077,6.423Zm0-28.287c-17.33-27.126-92.411-34.259-92.626-34.28a5.982,5.982,0,0,1,1.172-11.906c.231.022,81.02,7.658,101.531,39.763a5.975,5.975,0,0,1-10.077,6.423Zm0-28.287c-17.33-27.126-92.411-34.259-92.626-34.28a5.982,5.982,0,0,1,1.172-11.906c.231.022,81.02,7.658,101.531,39.763a5.975,5.975,0,0,1-10.077,6.423Zm0-28.289c-17.33-27.126-92.411-34.258-92.626-34.279a5.982,5.982,0,0,1,1.172-11.906c.231.022,81.018,7.655,101.531,39.762a5.975,5.975,0,0,1-10.077,6.423Zm0-28.287c-17.33-27.126-92.411-34.259-92.626-34.28a5.982,5.982,0,1,1,1.172-11.906c.231.022,81.02,7.658,101.531,39.763a5.975,5.975,0,0,1-10.077,6.423Z" fill-rule="evenodd" style="fill: rgb(255, 255, 255);"></path>
    <path id="Path_31" data-name="Path 31" d="M361.7,156.475V369.863c37.642-23.054,77.222-22.139,119.841-21.152l9.731.215L491.9,167c-.015-.175-.024-.351-.024-.529,0-.194.009-.385.027-.57l.152-44.339c-23.913.137-48.189,2.771-71.362,8.907-20.93,5.542-40.961,13.961-58.994,26.007ZM481.376,287.58a5.982,5.982,0,0,1-5.367,6.539c-.215.021-75.3,7.154-92.626,34.28a5.975,5.975,0,0,1-10.077-6.423c20.511-32.1,101.3-39.741,101.531-39.763a5.982,5.982,0,0,1,6.539,5.367Zm0-28.287a5.982,5.982,0,0,1-5.367,6.539c-.215.021-75.3,7.154-92.626,34.279a5.975,5.975,0,0,1-10.077-6.423c20.512-32.1,101.3-39.739,101.531-39.762a5.982,5.982,0,0,1,6.539,5.367Zm0-28.289a5.982,5.982,0,0,1-5.367,6.539c-.215.021-75.3,7.154-92.626,34.28a5.975,5.975,0,0,1-10.077-6.423c20.511-32.1,101.3-39.741,101.531-39.763A5.982,5.982,0,0,1,481.376,231Zm0-28.287a5.982,5.982,0,0,1-5.367,6.539c-.215.021-75.3,7.154-92.626,34.28a5.975,5.975,0,0,1-10.077-6.423c20.511-32.1,101.3-39.741,101.531-39.763a5.982,5.982,0,0,1,6.539,5.367Zm0-28.287a5.982,5.982,0,0,1-5.367,6.539c-.215.021-75.3,7.153-92.626,34.279a5.975,5.975,0,0,1-10.077-6.423c20.513-32.107,101.3-39.739,101.531-39.762a5.982,5.982,0,0,1,6.539,5.367Zm0-28.289a5.982,5.982,0,0,1-5.367,6.539c-.215.021-75.3,7.154-92.626,34.28a5.975,5.975,0,0,1-10.077-6.423c20.511-32.1,101.3-39.741,101.531-39.763a5.982,5.982,0,0,1,6.539,5.367Z" fill-rule="evenodd" style="fill: rgb(255, 255, 255);"></path>
    <path id="Path_32" data-name="Path 32" d="M481.3,360.663c-37.2-.861-71.982-1.665-104.282,14.411H511.381v-202.6h-7.552L503.2,354.5q.025.292.021.592a6,6,0,0,1-6.086,5.911v-.022c-5.434-.079-10.658-.2-15.833-.32Z" fill-rule="evenodd" style="fill: rgb(255, 255, 255);"></path>
    <path id="Path_33" data-name="Path 33" d="M200.061,172.471v202.6H334.415C302.117,359,267.34,359.8,230.138,360.663c-5.174.119-10.4.241-15.833.32v.022a6,6,0,0,1-6.086-5.911q0-.3.021-.592l-.627-182.032h-7.552Z" fill-rule="evenodd" style="fill: rgb(255, 255, 255);"></path>
  </g>
</svg>