<svg id="Line" xmlns="http://www.w3.org/2000/svg" viewBox="0 0 64 64"><title>1</title><path d="M53,4H11a7.00787,7.00787,0,0,0-7,7V53a7.00787,7.00787,0,0,0,7,7H53a7.00787,7.00787,0,0,0,7-7V11A7.00787,7.00787,0,0,0,53,4Zm5,49a5.00588,5.00588,0,0,1-5,5H11a5.00588,5.00588,0,0,1-5-5V11a5.00588,5.00588,0,0,1,5-5H53a5.00588,5.00588,0,0,1,5,5Z" id="id_101" style="fill: rgb(20, 3, 255);"></path><path d="M51,9H13a4.00458,4.00458,0,0,0-4,4V51a4.00458,4.00458,0,0,0,4,4H51a4.00458,4.00458,0,0,0,4-4V13A4.00458,4.00458,0,0,0,51,9Zm2,42a2.002,2.002,0,0,1-2,2H13a2.002,2.002,0,0,1-2-2V13a2.002,2.002,0,0,1,2-2H51a2.002,2.002,0,0,1,2,2Z" id="id_102" style="fill: rgb(20, 3, 255);"></path><path d="M46,21.07617H43.83008V18.01465a2.35646,2.35646,0,0,0-2.35352-2.354H38.769a2.35687,2.35687,0,0,0-2.354,2.354v3.06152H27.585V18.01465a2.35687,2.35687,0,0,0-2.354-2.354H22.52344a2.35646,2.35646,0,0,0-2.35352,2.354v3.06152H18a2.002,2.002,0,0,0-2,2v3.415a2.002,2.002,0,0,0,2,2h2.16992v3.06152a2.356,2.356,0,0,0,2.35352,2.35352H25.231a2.35644,2.35644,0,0,0,2.354-2.35352V28.49121H36.415v3.06152a2.35644,2.35644,0,0,0,2.354,2.35352h2.70752a2.356,2.356,0,0,0,2.35352-2.35352V28.49121H46a2.002,2.002,0,0,0,2-2v-3.415A2.002,2.002,0,0,0,46,21.07617Zm-28,5.415-.00146-3.415h2.17138v3.415Zm7.585,5.06152a.35415.35415,0,0,1-.354.35352H22.52344a.354.354,0,0,1-.35352-.35352c-.00137-2.284.001-7.1638,0-9.47659V18.01465a.35416.35416,0,0,1,.35352-.354H25.231a.35426.35426,0,0,1,.354.354v4.06152C25.58219,24.39723,25.587,29.2601,25.585,31.55273Zm2-5.06152v-3.415H36.415v3.415Zm14.24512,5.06152a.354.354,0,0,1-.35352.35352H38.769a.35415.35415,0,0,1-.354-.35352c-.00137-2.284.001-7.1638,0-9.47659V18.01465a.35426.35426,0,0,1,.354-.354h2.70752a.35416.35416,0,0,1,.35352.354v4.06152C41.82731,24.39723,41.83207,29.2601,41.83008,31.55273ZM46,26.49121H43.83008V23.07568L46,23.07471Z" id="id_103" style="fill: rgb(20, 3, 255);"></path><path d="M36.73737,42.27454a1.02777,1.02777,0,0,0-.28034-.64222l-5-5a1.00008,1.00008,0,0,0-1.414,1.41411l3.29292,3.29293H28.25a1,1,0,0,0,0,2h5.08594l-3.293,3.293a1.00668,1.00668,0,0,0,.70708,1.707.99663.99663,0,0,0,.707-.29295l5-5A.98658.98658,0,0,0,36.73737,42.27454Z" id="id_104" style="fill: rgb(20, 3, 255);"></path></svg>