<svg xmlns="http://www.w3.org/2000/svg" viewBox="0 0 32 32"><defs><style>.cls-1{fill:#d9e1e2;}.cls-2{fill:#eaeff0;}.cls-3{fill:#7b8c8c;}</style></defs><title>Hospital</title><g id="Hospital"><rect class="cls-1" x="4" y="9" width="24" height="19" rx="2" id="id_101" style="fill: rgb(255, 255, 255);"></rect><path class="cls-2" d="M23,28V6a2,2,0,0,0-2-2H11A2,2,0,0,0,9,6V28Z" id="id_102" style="fill: rgb(245, 151, 0);"></path><rect class="cls-3" x="13" y="24" width="6" height="4" id="id_103" style="fill: rgb(255, 255, 255);"></rect><path d="M26,8H24V6a3,3,0,0,0-3-3H11A3,3,0,0,0,8,6V8H6a3,3,0,0,0-3,3V26a3,3,0,0,0,3,3H26a3,3,0,0,0,3-3V11A3,3,0,0,0,26,8ZM6,27a1,1,0,0,1-1-1V11a1,1,0,0,1,1-1H8V27Zm8,0V25h4v2Zm6,0V24a1,1,0,0,0-1-1H13a1,1,0,0,0-1,1v3H10V6a1,1,0,0,1,1-1H21a1,1,0,0,1,1,1V27Zm7-1a1,1,0,0,1-1,1H24V10h2a1,1,0,0,1,1,1Z" id="id_104" style="fill: rgb(255, 255, 255);"></path><path d="M14,15H13a1,1,0,0,0,0,2h1a1,1,0,0,0,0-2Z" id="id_105" style="fill: rgb(255, 255, 255);"></path><path d="M19,15H18a1,1,0,0,0,0,2h1a1,1,0,0,0,0-2Z" id="id_106" style="fill: rgb(255, 255, 255);"></path><path d="M14,19H13a1,1,0,0,0,0,2h1a1,1,0,0,0,0-2Z" id="id_107" style="fill: rgb(255, 255, 255);"></path><path d="M19,19H18a1,1,0,0,0,0,2h1a1,1,0,0,0,0-2Z" id="id_108" style="fill: rgb(255, 255, 255);"></path><path d="M17,11h1a1,1,0,0,0,0-2H17V8a1,1,0,0,0-2,0V9H14a1,1,0,0,0,0,2h1v1a1,1,0,0,0,2,0Z" id="id_109" style="fill: rgb(255, 255, 255);"></path></g></svg>