<svg xmlns="http://www.w3.org/2000/svg" xml:space="preserve" width="1.70666in" height="1.70666in" version="1.1" style="shape-rendering:geometricPrecision; text-rendering:geometricPrecision; image-rendering:optimizeQuality; fill-rule:evenodd; clip-rule:evenodd" viewBox="0 0 1706.66 1706.66" xmlns:xlink="http://www.w3.org/1999/xlink" xmlns:xodm="http://www.corel.com/coreldraw/odm/2003">
 <defs>
  <style type="text/css">
   
    .fil0 {fill:#8CB330}
    .fil1 {fill:#9CC735}
    .fil2 {fill:white}
   
  </style>
 </defs>
 <g id="Layer_x0020_1">
  <metadata id="CorelCorpID_0Corel-Layer"></metadata>
  <path class="fil0" d="M1669.74 1451.19l-1632.81 0c-20.35,0 -36.92,-16.56 -36.92,-36.92l0 -1121.91c0,-20.35 16.56,-36.9 36.92,-36.9l1632.81 0c20.36,0 36.92,16.56 36.92,36.9l0 1121.91c0,20.36 -16.57,36.91 -36.92,36.91z" id="id_101"></path>
  <path class="fil1" d="M1585.17 1349.72l-1463.69 0c-11.04,0 -20,-8.97 -20,-20l0 -952.8c0,-11.04 8.96,-20 20,-20l1463.69 0c11.04,0 20,8.96 20,20l0 952.79c0,11.04 -8.96,20.01 -20,20.01z" id="id_102"></path>
  <path class="fil2" d="M873.32 1349.72l-40 0 0 -339.6c0,-26.33 40,-26.31 40,0l0 339.6zm-40 -992.8l40 0 0 339.6c0,26.33 -40,26.33 -40,0l0 -339.6z" id="id_103"></path>
  <path class="fil2" d="M101.49 1047.77l0 -40.01 197.15 0 0 -308.89 -197.15 0 0 -39.98 217.15 0c11.04,0 20,8.96 20,20l0 348.88c-0.02,11.03 -8.96,20 -20.02,20l-217.14 0z" id="id_104"></path>
  <path class="fil2" d="M101.49 1135.84l0 -40 296.69 0 0 -485.03 -296.69 0 0 -40 316.69 0c11.04,0 20,8.96 20,20l0 525.03c0,11.04 -8.96,20 -20,20l-316.69 0z" id="id_105"></path>
  <path class="fil2" d="M1605.17 658.89l0 39.98 -197.14 0 0 308.89 197.14 0 0 40.01 -217.15 0c-11.04,0 -20,-8.97 -20,-20l0 -348.88c0,-11.04 8.97,-20 20,-20l217.15 0z" id="id_106"></path>
  <path class="fil2" d="M1605.17 570.81l0 40 -296.69 0 0 485.03 296.69 0 0 40 -316.7 0c-11.03,0 -20,-8.97 -20,-20l0 -525.03c0,-11.04 8.97,-20 20,-20l316.7 0z" id="id_107"></path>
  <path class="fil2" d="M853.32 1030.12c-97.48,0 -176.79,-79.31 -176.79,-176.8 0,-97.48 79.3,-176.79 176.79,-176.79 97.48,0 176.8,79.3 176.8,176.79 0,97.48 -79.31,176.8 -176.8,176.8z" id="id_108" style="fill: rgb(255, 255, 255);"></path>
  <path class="fil0" d="M853.32 716.52c-75.43,0 -136.8,61.36 -136.8,136.79 0,75.43 61.36,136.79 136.8,136.79 75.44,0 136.79,-61.36 136.79,-136.79 0,-75.43 -61.36,-136.79 -136.79,-136.79z" id="id_109"></path>
 </g>
</svg>